<svg xmlns="http://www.w3.org/2000/svg" viewBox="0 0 68 28" role="img" aria-label="AHX" shape-rendering="crispEdges"><path d="M4 0h4v4h-4zM8 0h4v4h-4zM12 0h4v4h-4zM0 8h4v4h-4zM16 8h4v4h-4zM0 16h4v4h-4zM16 16h4v4h-4zM0 24h4v4h-4zM16 24h4v4h-4zM24 0h4v4h-4zM40 0h4v4h-4zM24 8h4v4h-4zM40 8h4v4h-4zM24 16h4v4h-4zM40 16h4v4h-4zM24 24h4v4h-4zM40 24h4v4h-4zM48 0h4v4h-4zM64 0h4v4h-4zM52 8h4v4h-4zM60 8h4v4h-4zM52 16h4v4h-4zM60 16h4v4h-4zM48 24h4v4h-4zM64 24h4v4h-4z" fill="currentColor"/><path d="M0 4h4v4h-4zM16 4h4v4h-4zM0 12h4v4h-4zM4 12h4v4h-4zM8 12h4v4h-4zM12 12h4v4h-4zM16 12h4v4h-4zM0 20h4v4h-4zM16 20h4v4h-4zM24 4h4v4h-4zM40 4h4v4h-4zM24 12h4v4h-4zM28 12h4v4h-4zM32 12h4v4h-4zM36 12h4v4h-4zM40 12h4v4h-4zM24 20h4v4h-4zM40 20h4v4h-4zM48 4h4v4h-4zM64 4h4v4h-4zM56 12h4v4h-4zM48 20h4v4h-4zM64 20h4v4h-4z" fill="currentColor" opacity=".62"/></svg>
