<svg xmlns="http://www.w3.org/2000/svg" viewBox="0 0 116 48" role="img" aria-label="FerroTracker"><g transform="translate(0 0)"><g fill="#b5653a" opacity=".35"><circle cx="6" cy="6" r="1.68"/><circle cx="10" cy="6" r="1.68"/><circle cx="14" cy="6" r="1.68"/><circle cx="18" cy="6" r="1.68"/><circle cx="6" cy="10" r="1.68"/><circle cx="10" cy="10" r="1.68"/><circle cx="14" cy="10" r="1.68"/><circle cx="18" cy="10" r="1.68"/><circle cx="18" cy="14" r="1.68"/><circle cx="6" cy="18" r="1.68"/><circle cx="10" cy="18" r="1.68"/><circle cx="14" cy="18" r="1.68"/><circle cx="18" cy="18" r="1.68"/><circle cx="6" cy="22" r="1.68"/><circle cx="10" cy="22" r="1.68"/><circle cx="14" cy="22" r="1.68"/><circle cx="18" cy="22" r="1.68"/><circle cx="6" cy="26" r="1.68"/><circle cx="10" cy="26" r="1.68"/><circle cx="14" cy="26" r="1.68"/><circle cx="18" cy="26" r="1.68"/><circle cx="30" cy="6" r="1.68"/><circle cx="34" cy="6" r="1.68"/><circle cx="38" cy="6" r="1.68"/><circle cx="42" cy="6" r="1.68"/><circle cx="30" cy="10" r="1.68"/><circle cx="34" cy="10" r="1.68"/><circle cx="38" cy="10" r="1.68"/><circle cx="42" cy="10" r="1.68"/><circle cx="42" cy="14" r="1.68"/><circle cx="30" cy="18" r="1.68"/><circle cx="34" cy="18" r="1.68"/><circle cx="38" cy="18" r="1.68"/><circle cx="42" cy="18" r="1.68"/><circle cx="30" cy="22" r="1.68"/><circle cx="34" cy="22" r="1.68"/><circle cx="38" cy="22" r="1.68"/><circle cx="42" cy="22" r="1.68"/><circle cx="66" cy="2" r="1.68"/><circle cx="54" cy="6" r="1.68"/><circle cx="58" cy="6" r="1.68"/><circle cx="62" cy="6" r="1.68"/><circle cx="54" cy="10" r="1.68"/><circle cx="58" cy="10" r="1.68"/><circle cx="62" cy="10" r="1.68"/><circle cx="66" cy="14" r="1.68"/><circle cx="54" cy="18" r="1.68"/><circle cx="62" cy="18" r="1.68"/><circle cx="66" cy="18" r="1.68"/><circle cx="54" cy="22" r="1.68"/><circle cx="58" cy="22" r="1.68"/><circle cx="66" cy="22" r="1.68"/><circle cx="54" cy="26" r="1.68"/><circle cx="58" cy="26" r="1.68"/><circle cx="62" cy="26" r="1.68"/><circle cx="90" cy="2" r="1.68"/><circle cx="78" cy="6" r="1.68"/><circle cx="82" cy="6" r="1.68"/><circle cx="86" cy="6" r="1.68"/><circle cx="78" cy="10" r="1.68"/><circle cx="82" cy="10" r="1.68"/><circle cx="86" cy="10" r="1.68"/><circle cx="90" cy="14" r="1.68"/><circle cx="78" cy="18" r="1.68"/><circle cx="86" cy="18" r="1.68"/><circle cx="90" cy="18" r="1.68"/><circle cx="78" cy="22" r="1.68"/><circle cx="82" cy="22" r="1.68"/><circle cx="90" cy="22" r="1.68"/><circle cx="78" cy="26" r="1.68"/><circle cx="82" cy="26" r="1.68"/><circle cx="86" cy="26" r="1.68"/><circle cx="98" cy="2" r="1.68"/><circle cx="114" cy="2" r="1.68"/><circle cx="102" cy="6" r="1.68"/><circle cx="106" cy="6" r="1.68"/><circle cx="110" cy="6" r="1.68"/><circle cx="102" cy="10" r="1.68"/><circle cx="106" cy="10" r="1.68"/><circle cx="110" cy="10" r="1.68"/><circle cx="102" cy="14" r="1.68"/><circle cx="106" cy="14" r="1.68"/><circle cx="110" cy="14" r="1.68"/><circle cx="102" cy="18" r="1.68"/><circle cx="106" cy="18" r="1.68"/><circle cx="110" cy="18" r="1.68"/><circle cx="102" cy="22" r="1.68"/><circle cx="106" cy="22" r="1.68"/><circle cx="110" cy="22" r="1.68"/><circle cx="98" cy="26" r="1.68"/><circle cx="114" cy="26" r="1.68"/></g><g fill="currentColor"><circle cx="2" cy="2" r="1.68"/><circle cx="6" cy="2" r="1.68"/><circle cx="10" cy="2" r="1.68"/><circle cx="14" cy="2" r="1.68"/><circle cx="18" cy="2" r="1.68"/><circle cx="2" cy="6" r="1.68"/><circle cx="2" cy="10" r="1.68"/><circle cx="2" cy="14" r="1.68"/><circle cx="6" cy="14" r="1.68"/><circle cx="10" cy="14" r="1.68"/><circle cx="14" cy="14" r="1.68"/><circle cx="2" cy="18" r="1.68"/><circle cx="2" cy="22" r="1.68"/><circle cx="2" cy="26" r="1.68"/><circle cx="26" cy="2" r="1.68"/><circle cx="30" cy="2" r="1.68"/><circle cx="34" cy="2" r="1.68"/><circle cx="38" cy="2" r="1.68"/><circle cx="42" cy="2" r="1.68"/><circle cx="26" cy="6" r="1.68"/><circle cx="26" cy="10" r="1.68"/><circle cx="26" cy="14" r="1.68"/><circle cx="30" cy="14" r="1.68"/><circle cx="34" cy="14" r="1.68"/><circle cx="38" cy="14" r="1.68"/><circle cx="26" cy="18" r="1.68"/><circle cx="26" cy="22" r="1.68"/><circle cx="26" cy="26" r="1.68"/><circle cx="30" cy="26" r="1.68"/><circle cx="34" cy="26" r="1.68"/><circle cx="38" cy="26" r="1.68"/><circle cx="42" cy="26" r="1.68"/><circle cx="50" cy="2" r="1.68"/><circle cx="54" cy="2" r="1.68"/><circle cx="58" cy="2" r="1.68"/><circle cx="62" cy="2" r="1.68"/><circle cx="50" cy="6" r="1.68"/><circle cx="66" cy="6" r="1.68"/><circle cx="50" cy="10" r="1.68"/><circle cx="66" cy="10" r="1.68"/><circle cx="50" cy="14" r="1.68"/><circle cx="54" cy="14" r="1.68"/><circle cx="58" cy="14" r="1.68"/><circle cx="62" cy="14" r="1.68"/><circle cx="50" cy="18" r="1.68"/><circle cx="58" cy="18" r="1.68"/><circle cx="50" cy="22" r="1.68"/><circle cx="62" cy="22" r="1.68"/><circle cx="50" cy="26" r="1.68"/><circle cx="66" cy="26" r="1.68"/><circle cx="74" cy="2" r="1.68"/><circle cx="78" cy="2" r="1.68"/><circle cx="82" cy="2" r="1.68"/><circle cx="86" cy="2" r="1.68"/><circle cx="74" cy="6" r="1.68"/><circle cx="90" cy="6" r="1.68"/><circle cx="74" cy="10" r="1.68"/><circle cx="90" cy="10" r="1.68"/><circle cx="74" cy="14" r="1.68"/><circle cx="78" cy="14" r="1.68"/><circle cx="82" cy="14" r="1.68"/><circle cx="86" cy="14" r="1.68"/><circle cx="74" cy="18" r="1.68"/><circle cx="82" cy="18" r="1.68"/><circle cx="74" cy="22" r="1.68"/><circle cx="86" cy="22" r="1.68"/><circle cx="74" cy="26" r="1.68"/><circle cx="90" cy="26" r="1.68"/><circle cx="102" cy="2" r="1.68"/><circle cx="106" cy="2" r="1.68"/><circle cx="110" cy="2" r="1.68"/><circle cx="98" cy="6" r="1.68"/><circle cx="114" cy="6" r="1.68"/><circle cx="98" cy="10" r="1.68"/><circle cx="114" cy="10" r="1.68"/><circle cx="98" cy="14" r="1.68"/><circle cx="114" cy="14" r="1.68"/><circle cx="98" cy="18" r="1.68"/><circle cx="114" cy="18" r="1.68"/><circle cx="98" cy="22" r="1.68"/><circle cx="114" cy="22" r="1.68"/><circle cx="102" cy="26" r="1.68"/><circle cx="106" cy="26" r="1.68"/><circle cx="110" cy="26" r="1.68"/></g></g><g transform="translate(17 34)"><g fill="#b5653a" opacity=".35"><circle cx="1" cy="3" r="0.84"/><circle cx="3" cy="3" r="0.84"/><circle cx="7" cy="3" r="0.84"/><circle cx="9" cy="3" r="0.84"/><circle cx="1" cy="5" r="0.84"/><circle cx="3" cy="5" r="0.84"/><circle cx="7" cy="5" r="0.84"/><circle cx="9" cy="5" r="0.84"/><circle cx="1" cy="7" r="0.84"/><circle cx="3" cy="7" r="0.84"/><circle cx="7" cy="7" r="0.84"/><circle cx="9" cy="7" r="0.84"/><circle cx="1" cy="9" r="0.84"/><circle cx="3" cy="9" r="0.84"/><circle cx="7" cy="9" r="0.84"/><circle cx="9" cy="9" r="0.84"/><circle cx="1" cy="11" r="0.84"/><circle cx="3" cy="11" r="0.84"/><circle cx="7" cy="11" r="0.84"/><circle cx="9" cy="11" r="0.84"/><circle cx="1" cy="13" r="0.84"/><circle cx="3" cy="13" r="0.84"/><circle cx="7" cy="13" r="0.84"/><circle cx="9" cy="13" r="0.84"/><circle cx="21" cy="1" r="0.84"/><circle cx="15" cy="3" r="0.84"/><circle cx="17" cy="3" r="0.84"/><circle cx="19" cy="3" r="0.84"/><circle cx="15" cy="5" r="0.84"/><circle cx="17" cy="5" r="0.84"/><circle cx="19" cy="5" r="0.84"/><circle cx="21" cy="7" r="0.84"/><circle cx="15" cy="9" r="0.84"/><circle cx="19" cy="9" r="0.84"/><circle cx="21" cy="9" r="0.84"/><circle cx="15" cy="11" r="0.84"/><circle cx="17" cy="11" r="0.84"/><circle cx="21" cy="11" r="0.84"/><circle cx="15" cy="13" r="0.84"/><circle cx="17" cy="13" r="0.84"/><circle cx="19" cy="13" r="0.84"/><circle cx="25" cy="1" r="0.84"/><circle cx="33" cy="1" r="0.84"/><circle cx="27" cy="3" r="0.84"/><circle cx="29" cy="3" r="0.84"/><circle cx="31" cy="3" r="0.84"/><circle cx="27" cy="5" r="0.84"/><circle cx="29" cy="5" r="0.84"/><circle cx="31" cy="5" r="0.84"/><circle cx="27" cy="9" r="0.84"/><circle cx="29" cy="9" r="0.84"/><circle cx="31" cy="9" r="0.84"/><circle cx="27" cy="11" r="0.84"/><circle cx="29" cy="11" r="0.84"/><circle cx="31" cy="11" r="0.84"/><circle cx="27" cy="13" r="0.84"/><circle cx="29" cy="13" r="0.84"/><circle cx="31" cy="13" r="0.84"/><circle cx="37" cy="1" r="0.84"/><circle cx="39" cy="3" r="0.84"/><circle cx="41" cy="3" r="0.84"/><circle cx="43" cy="3" r="0.84"/><circle cx="45" cy="3" r="0.84"/><circle cx="39" cy="5" r="0.84"/><circle cx="41" cy="5" r="0.84"/><circle cx="43" cy="5" r="0.84"/><circle cx="45" cy="5" r="0.84"/><circle cx="39" cy="7" r="0.84"/><circle cx="41" cy="7" r="0.84"/><circle cx="43" cy="7" r="0.84"/><circle cx="45" cy="7" r="0.84"/><circle cx="39" cy="9" r="0.84"/><circle cx="41" cy="9" r="0.84"/><circle cx="43" cy="9" r="0.84"/><circle cx="45" cy="9" r="0.84"/><circle cx="39" cy="11" r="0.84"/><circle cx="41" cy="11" r="0.84"/><circle cx="43" cy="11" r="0.84"/><circle cx="45" cy="11" r="0.84"/><circle cx="37" cy="13" r="0.84"/><circle cx="51" cy="1" r="0.84"/><circle cx="53" cy="1" r="0.84"/><circle cx="55" cy="1" r="0.84"/><circle cx="51" cy="3" r="0.84"/><circle cx="53" cy="3" r="0.84"/><circle cx="57" cy="3" r="0.84"/><circle cx="51" cy="5" r="0.84"/><circle cx="55" cy="5" r="0.84"/><circle cx="57" cy="5" r="0.84"/><circle cx="53" cy="7" r="0.84"/><circle cx="55" cy="7" r="0.84"/><circle cx="57" cy="7" r="0.84"/><circle cx="51" cy="9" r="0.84"/><circle cx="55" cy="9" r="0.84"/><circle cx="57" cy="9" r="0.84"/><circle cx="51" cy="11" r="0.84"/><circle cx="53" cy="11" r="0.84"/><circle cx="57" cy="11" r="0.84"/><circle cx="51" cy="13" r="0.84"/><circle cx="53" cy="13" r="0.84"/><circle cx="55" cy="13" r="0.84"/><circle cx="63" cy="3" r="0.84"/><circle cx="65" cy="3" r="0.84"/><circle cx="67" cy="3" r="0.84"/><circle cx="69" cy="3" r="0.84"/><circle cx="63" cy="5" r="0.84"/><circle cx="65" cy="5" r="0.84"/><circle cx="67" cy="5" r="0.84"/><circle cx="69" cy="5" r="0.84"/><circle cx="69" cy="7" r="0.84"/><circle cx="63" cy="9" r="0.84"/><circle cx="65" cy="9" r="0.84"/><circle cx="67" cy="9" r="0.84"/><circle cx="69" cy="9" r="0.84"/><circle cx="63" cy="11" r="0.84"/><circle cx="65" cy="11" r="0.84"/><circle cx="67" cy="11" r="0.84"/><circle cx="69" cy="11" r="0.84"/><circle cx="81" cy="1" r="0.84"/><circle cx="75" cy="3" r="0.84"/><circle cx="77" cy="3" r="0.84"/><circle cx="79" cy="3" r="0.84"/><circle cx="75" cy="5" r="0.84"/><circle cx="77" cy="5" r="0.84"/><circle cx="79" cy="5" r="0.84"/><circle cx="81" cy="7" r="0.84"/><circle cx="75" cy="9" r="0.84"/><circle cx="79" cy="9" r="0.84"/><circle cx="81" cy="9" r="0.84"/><circle cx="75" cy="11" r="0.84"/><circle cx="77" cy="11" r="0.84"/><circle cx="81" cy="11" r="0.84"/><circle cx="75" cy="13" r="0.84"/><circle cx="77" cy="13" r="0.84"/><circle cx="79" cy="13" r="0.84"/></g><g fill="currentColor"><circle cx="1" cy="1" r="0.84"/><circle cx="3" cy="1" r="0.84"/><circle cx="5" cy="1" r="0.84"/><circle cx="7" cy="1" r="0.84"/><circle cx="9" cy="1" r="0.84"/><circle cx="5" cy="3" r="0.84"/><circle cx="5" cy="5" r="0.84"/><circle cx="5" cy="7" r="0.84"/><circle cx="5" cy="9" r="0.84"/><circle cx="5" cy="11" r="0.84"/><circle cx="5" cy="13" r="0.84"/><circle cx="13" cy="1" r="0.84"/><circle cx="15" cy="1" r="0.84"/><circle cx="17" cy="1" r="0.84"/><circle cx="19" cy="1" r="0.84"/><circle cx="13" cy="3" r="0.84"/><circle cx="21" cy="3" r="0.84"/><circle cx="13" cy="5" r="0.84"/><circle cx="21" cy="5" r="0.84"/><circle cx="13" cy="7" r="0.84"/><circle cx="15" cy="7" r="0.84"/><circle cx="17" cy="7" r="0.84"/><circle cx="19" cy="7" r="0.84"/><circle cx="13" cy="9" r="0.84"/><circle cx="17" cy="9" r="0.84"/><circle cx="13" cy="11" r="0.84"/><circle cx="19" cy="11" r="0.84"/><circle cx="13" cy="13" r="0.84"/><circle cx="21" cy="13" r="0.84"/><circle cx="27" cy="1" r="0.84"/><circle cx="29" cy="1" r="0.84"/><circle cx="31" cy="1" r="0.84"/><circle cx="25" cy="3" r="0.84"/><circle cx="33" cy="3" r="0.84"/><circle cx="25" cy="5" r="0.84"/><circle cx="33" cy="5" r="0.84"/><circle cx="25" cy="7" r="0.84"/><circle cx="27" cy="7" r="0.84"/><circle cx="29" cy="7" r="0.84"/><circle cx="31" cy="7" r="0.84"/><circle cx="33" cy="7" r="0.84"/><circle cx="25" cy="9" r="0.84"/><circle cx="33" cy="9" r="0.84"/><circle cx="25" cy="11" r="0.84"/><circle cx="33" cy="11" r="0.84"/><circle cx="25" cy="13" r="0.84"/><circle cx="33" cy="13" r="0.84"/><circle cx="39" cy="1" r="0.84"/><circle cx="41" cy="1" r="0.84"/><circle cx="43" cy="1" r="0.84"/><circle cx="45" cy="1" r="0.84"/><circle cx="37" cy="3" r="0.84"/><circle cx="37" cy="5" r="0.84"/><circle cx="37" cy="7" r="0.84"/><circle cx="37" cy="9" r="0.84"/><circle cx="37" cy="11" r="0.84"/><circle cx="39" cy="13" r="0.84"/><circle cx="41" cy="13" r="0.84"/><circle cx="43" cy="13" r="0.84"/><circle cx="45" cy="13" r="0.84"/><circle cx="49" cy="1" r="0.84"/><circle cx="57" cy="1" r="0.84"/><circle cx="49" cy="3" r="0.84"/><circle cx="55" cy="3" r="0.84"/><circle cx="49" cy="5" r="0.84"/><circle cx="53" cy="5" r="0.84"/><circle cx="49" cy="7" r="0.84"/><circle cx="51" cy="7" r="0.84"/><circle cx="49" cy="9" r="0.84"/><circle cx="53" cy="9" r="0.84"/><circle cx="49" cy="11" r="0.84"/><circle cx="55" cy="11" r="0.84"/><circle cx="49" cy="13" r="0.84"/><circle cx="57" cy="13" r="0.84"/><circle cx="61" cy="1" r="0.84"/><circle cx="63" cy="1" r="0.84"/><circle cx="65" cy="1" r="0.84"/><circle cx="67" cy="1" r="0.84"/><circle cx="69" cy="1" r="0.84"/><circle cx="61" cy="3" r="0.84"/><circle cx="61" cy="5" r="0.84"/><circle cx="61" cy="7" r="0.84"/><circle cx="63" cy="7" r="0.84"/><circle cx="65" cy="7" r="0.84"/><circle cx="67" cy="7" r="0.84"/><circle cx="61" cy="9" r="0.84"/><circle cx="61" cy="11" r="0.84"/><circle cx="61" cy="13" r="0.84"/><circle cx="63" cy="13" r="0.84"/><circle cx="65" cy="13" r="0.84"/><circle cx="67" cy="13" r="0.84"/><circle cx="69" cy="13" r="0.84"/><circle cx="73" cy="1" r="0.84"/><circle cx="75" cy="1" r="0.84"/><circle cx="77" cy="1" r="0.84"/><circle cx="79" cy="1" r="0.84"/><circle cx="73" cy="3" r="0.84"/><circle cx="81" cy="3" r="0.84"/><circle cx="73" cy="5" r="0.84"/><circle cx="81" cy="5" r="0.84"/><circle cx="73" cy="7" r="0.84"/><circle cx="75" cy="7" r="0.84"/><circle cx="77" cy="7" r="0.84"/><circle cx="79" cy="7" r="0.84"/><circle cx="73" cy="9" r="0.84"/><circle cx="77" cy="9" r="0.84"/><circle cx="73" cy="11" r="0.84"/><circle cx="79" cy="11" r="0.84"/><circle cx="73" cy="13" r="0.84"/><circle cx="81" cy="13" r="0.84"/></g></g></svg>
